# xmcd CD database file
#
# Track frame offsets:
#	150
#	14037
#	28800
#	44026
#	56938
#	67486
#	81855
#	90947
#	108884
#	126733
#	143561
#	158416
#	173917
#	189742
#
# Disc length: 2818 seconds
#
# Revision: 0
# Processed by: cddbd v1.5.2PL0 Copyright (c) Steve Scherf et al.
# Submitted via: CDex 1.70beta2
#
DISCID=cd0b000e
DTITLE=Various Artist - 上海スウィング
DYEAR=2008
DGENRE=Jazz
TTITLE0=ROCO - On a Slow Boat to China
TTITLE1=イズミカワソラ - 上海
TTITLE2=the fascinations - 蘇州夜曲
TTITLE3=Little fats and Swingin' hot shot party - Dinah
TTITLE4=ふたり乗り+Co.ffay - It's Only a Paper Moon
TTITLE5=ANDOW KENJI-LOW - St. Louis Blues
TTITLE6=ふたり乗り+Co.ffay - Almost Like Being in Love
TTITLE7=イズミカワソラ - Get Out and Get Under the Moon
TTITLE8=ROCO - My Blue Heaven
TTITLE9=the fascinations - 夜来香
TTITLE10=Linda and The Big King Jive Daddies - Barflies at The Beach - Sing Sing Sing
TTITLE11=吾妻光良 and The Swinging Boppers - Walk That Mass
TTITLE12=Little fats and Swingin' hot shot party - On the Suny Side Of The Street
TTITLE13=the fascinations - Stardust
EXTD=YEAR: 2008
EXTT0=
EXTT1=
EXTT2=
EXTT3=
EXTT4=
EXTT5=
EXTT6=
EXTT7=
EXTT8=
EXTT9=
EXTT10=
EXTT11=
EXTT12=
EXTT13=
PLAYORDER=
